<svg xmlns="http://www.w3.org/2000/svg" xmlns:xlink="http://www.w3.org/1999/xlink" width="100" zoomAndPan="magnify" viewBox="0 0 75 74.999997" height="100" preserveAspectRatio="xMidYMid meet" version="1.2"><defs><clipPath id="bc5607d525"><path d="M 11.429688 11 L 64 11 L 64 64.660156 L 11.429688 64.660156 Z M 11.429688 11 "/></clipPath><clipPath id="ceec37a1ab"><path d="M 27 10.660156 L 49.679688 10.660156 L 49.679688 33.339844 L 27 33.339844 Z M 27 10.660156 "/></clipPath><clipPath id="257afb7e38"><path d="M 33 15 L 49.679688 15 L 49.679688 33.339844 L 33 33.339844 Z M 33 15 "/></clipPath></defs><g id="e9a787c9a7"><g clip-rule="nonzero" clip-path="url(#bc5607d525)"><path style=" stroke:none;fill-rule:evenodd;fill:#bb03da;fill-opacity:1;" d="M 31.398438 54.464844 C 32.640625 54.75 33.449219 55.714844 33.5625 57.089844 C 33.59375 57.460938 33.855469 57.753906 34.222656 57.824219 C 35.84375 58.140625 36.78125 59.597656 36.515625 61.105469 C 36.484375 61.28125 36.453125 61.410156 36.421875 61.5 C 36.277344 61.90625 36.476562 62.351562 36.871094 62.519531 C 37.851562 62.941406 39.101562 63.496094 39.804688 63.78125 C 41.328125 64.402344 43.683594 62.488281 41.703125 61.386719 L 38.542969 59.84375 C 37.71875 59.617188 37.757812 58.585938 38.796875 58.816406 C 39.242188 58.914062 39.710938 59.25 40.136719 59.464844 C 41.261719 60.035156 42.21875 60.597656 43.164062 61.0625 C 45.457031 62.191406 47.40625 59.695312 45.617188 58.65625 C 44.789062 58.175781 43.71875 57.585938 43.128906 57.246094 C 42.5625 56.921875 41.96875 56.59375 41.402344 56.25 C 40.847656 55.914062 39.824219 55.613281 40.269531 54.902344 C 40.71875 54.421875 41.917969 55.414062 42.875 55.949219 C 43.675781 56.398438 45.878906 57.554688 46.707031 58.03125 C 48.972656 59.425781 51.109375 57.542969 49.042969 55.671875 C 48.75 55.355469 42.902344 51.851562 42.214844 51.542969 C 41.417969 50.902344 42.265625 50.195312 42.84375 50.578125 L 51.316406 56.179688 C 53.289062 56.976562 55.152344 54.652344 53.597656 53.171875 C 49.304688 49.875 44.878906 46.402344 39.941406 43.734375 C 39.09375 43.253906 37.6875 42.449219 37.214844 42.300781 C 35.363281 41.734375 33.207031 45.242188 32.035156 46.207031 C 30.296875 47.152344 28.09375 46.605469 27.375 45.4375 C 26.664062 44.277344 28.308594 42.164062 29.480469 40.628906 C 29.65625 40.394531 29.695312 40.101562 29.585938 39.828125 C 29.476562 39.550781 29.246094 39.371094 28.953125 39.324219 C 28.476562 39.25 27.996094 39.175781 27.515625 39.054688 C 26.785156 38.875 26.386719 38.609375 25.972656 38.355469 C 25.78125 38.238281 25.570312 38.207031 25.351562 38.261719 C 25.132812 38.316406 24.964844 38.441406 24.847656 38.632812 C 23.632812 40.644531 20.253906 46.6875 19.296875 48.570312 C 19.136719 48.882812 19.1875 49.246094 19.429688 49.5 C 19.910156 50.007812 20.304688 50.542969 20.722656 51.085938 C 20.851562 51.253906 21.085938 51.292969 21.265625 51.179688 C 22.769531 50.21875 24.597656 50.230469 25.617188 51.941406 C 25.691406 52.0625 25.8125 52.136719 25.957031 52.140625 C 26.101562 52.144531 26.226562 52.082031 26.304688 51.964844 L 26.558594 51.597656 C 27.996094 50.113281 30.695312 51.347656 30.761719 53.691406 C 30.773438 54.066406 31.03125 54.378906 31.398438 54.464844 Z M 62.234375 48.246094 L 59.199219 50.113281 C 59.003906 50.234375 58.789062 50.269531 58.566406 50.210938 C 58.347656 50.15625 58.175781 50.027344 58.0625 49.828125 L 51.148438 37.824219 C 50.925781 37.441406 51.050781 36.953125 51.425781 36.722656 L 62.546875 29.882812 C 62.804688 29.722656 63.109375 29.714844 63.375 29.863281 C 63.640625 30.011719 63.792969 30.273438 63.792969 30.578125 L 63.792969 45.460938 C 63.792969 46.628906 63.230469 47.632812 62.234375 48.246094 Z M 40.332031 12.164062 C 45.9375 13.664062 49.265625 19.425781 47.761719 25.03125 C 46.261719 30.636719 40.5 33.960938 34.894531 32.460938 C 29.289062 30.957031 25.964844 25.199219 27.464844 19.59375 C 28.96875 13.988281 34.730469 10.660156 40.332031 12.164062 Z M 34.339844 20.96875 L 36.433594 23.402344 L 41.5625 18.152344 C 41.820312 17.890625 42.25 17.910156 42.503906 18.171875 L 43.871094 19.597656 C 44.125 19.863281 44.105469 20.28125 43.851562 20.535156 L 37.511719 26.890625 C 36.671875 27.699219 35.789062 27.628906 35.097656 26.824219 L 31.839844 23.128906 C 31.601562 22.855469 31.632812 22.429688 31.910156 22.191406 L 33.402344 20.898438 C 33.542969 20.777344 33.703125 20.726562 33.886719 20.738281 C 34.070312 20.75 34.222656 20.828125 34.339844 20.96875 Z M 22.40625 51.625 C 21.820312 51.828125 20.613281 53.46875 20.578125 54.132812 C 20.519531 55.25 21.675781 56.394531 22.847656 55.992188 C 23.273438 55.847656 24.8125 53.980469 24.851562 53.289062 C 24.917969 52.09375 23.617188 50.957031 22.40625 51.625 Z M 32.5625 59.488281 L 31.007812 61.703125 C 30.078125 63.644531 32.109375 64.660156 33.359375 63.914062 C 33.648438 63.742188 35.320312 61.546875 35.484375 61.105469 C 36.054688 59.550781 33.800781 57.730469 32.5625 59.488281 Z M 30.226562 55.546875 C 29.582031 55.894531 27.835938 58.59375 27.359375 59.25 C 25.972656 61.15625 28.308594 62.632812 29.523438 61.761719 C 29.917969 61.539062 31.648438 59.039062 32.117188 58.398438 C 33.441406 56.582031 31.550781 54.835938 30.226562 55.546875 Z M 27.507812 52.050781 C 26.867188 52.324219 24.378906 55.757812 23.6875 56.789062 C 22.4375 58.65625 24.585938 60.429688 26.082031 59.269531 C 26.609375 58.855469 28.355469 56.152344 28.839844 55.507812 C 29.296875 54.902344 30.054688 54.214844 29.632812 53.136719 C 29.359375 52.449219 28.40625 51.664062 27.507812 52.050781 Z M 53.5625 51.1875 C 54.222656 50.625 55.1875 49.726562 55.757812 49.148438 C 56.019531 48.886719 56.074219 48.496094 55.894531 48.175781 L 51.644531 40.570312 C 51.308594 39.996094 50.757812 39.109375 50.394531 38.402344 C 50.222656 38.070312 49.867188 37.902344 49.503906 37.972656 C 44.078125 39.066406 41.167969 34.28125 34.953125 36.175781 C 33.453125 36.632812 29.308594 42.035156 28.296875 44.261719 C 28.136719 44.609375 28.234375 45.007812 28.535156 45.246094 C 32.484375 48.328125 33.183594 38.984375 38.800781 42.015625 C 43.996094 44.820312 47.933594 47.578125 52.527344 51.207031 C 52.835938 51.449219 53.265625 51.441406 53.5625 51.1875 Z M 11.4375 45.765625 L 11.4375 30.886719 C 11.4375 30.582031 11.589844 30.320312 11.855469 30.171875 C 12.121094 30.023438 12.425781 30.03125 12.683594 30.191406 L 23.800781 37.027344 C 24.179688 37.261719 24.304688 37.75 24.082031 38.132812 L 17.167969 50.132812 C 17.054688 50.332031 16.882812 50.460938 16.660156 50.519531 C 16.4375 50.574219 16.226562 50.542969 16.03125 50.421875 L 12.996094 48.554688 C 12 47.941406 11.4375 46.9375 11.4375 45.765625 Z M 11.4375 45.765625 "/></g><g clip-rule="nonzero" clip-path="url(#ceec37a1ab)"><path style=" stroke:none;fill-rule:nonzero;fill:#21f07e;fill-opacity:1;" d="M 49.679688 22 C 49.679688 28.261719 44.605469 33.339844 38.339844 33.339844 C 32.078125 33.339844 27 28.261719 27 22 C 27 15.738281 32.078125 10.660156 38.339844 10.660156 C 44.605469 10.660156 49.679688 15.738281 49.679688 22 "/></g><g clip-rule="nonzero" clip-path="url(#257afb7e38)"><path style=" stroke:none;fill-rule:nonzero;fill:#21f07e;fill-opacity:1;" d="M 49.679688 22 C 49.679688 21.65625 49.664062 21.316406 49.636719 20.980469 L 44.589844 15.9375 L 33.78125 26.746094 L 40.21875 33.183594 C 45.585938 32.292969 49.679688 27.625 49.679688 22 "/><path style=" stroke:none;fill-rule:nonzero;fill:#12c764;fill-opacity:1;" d="M 40.21875 33.183594 L 33.78125 26.746094 L 44.589844 15.9375 L 49.636719 20.980469 C 49.664062 21.316406 49.679688 21.65625 49.679688 22 C 49.679688 27.625 45.585938 32.292969 40.21875 33.183594 "/></g><path style=" stroke:none;fill-rule:nonzero;fill:#ffffff;fill-opacity:1;" d="M 46.164062 17.484375 L 44.363281 15.679688 L 35.359375 24.683594 L 31.828125 21.152344 L 30.023438 22.953125 L 35.359375 28.289062 L 46.164062 17.484375 "/></g></svg>