<svg width="118" height="130" viewBox="0 0 118 130" fill="none" xmlns="http://www.w3.org/2000/svg">
<path d="M116.033 24.9547L60.3111 0.291499C59.9009 0.0995319 59.4533 0 59 0C58.5467 0 58.0991 0.0995319 57.6889 0.291499L1.96667 24.9547C1.39049 25.2049 0.898746 25.6147 0.550052 26.1353C0.201357 26.6559 0.0104194 27.2653 0 27.8908V45.3769C0 77.4783 19.2733 116.365 57.82 129.806C58.5852 130.065 59.4148 130.065 60.18 129.806C98.7267 116.365 118 77.4783 118 45.3769V27.8908C117.99 27.2653 117.799 26.6559 117.45 26.1353C117.101 25.6147 116.61 25.2049 116.033 24.9547ZM89.7324 46.5514L55.1191 90.4102C54.616 91.0424 53.9847 91.5621 53.2663 91.9354C52.5479 92.3086 51.7586 92.527 50.9498 92.5764L50.6089 92.5894C49.0847 92.5868 47.6235 91.984 46.5444 90.9126L28.7133 73.1655C27.638 72.0926 27.0349 70.6385 27.0367 69.1231C27.0386 67.6076 27.6452 66.155 28.7232 65.0847C29.8011 64.0144 31.2621 63.4142 32.7847 63.416C34.3073 63.4178 35.7669 64.0216 36.8422 65.0945L50.0976 78.2873L80.712 39.4982C81.6691 38.3567 83.0354 37.6312 84.5211 37.4758C86.0067 37.3204 87.4947 37.7474 88.6693 38.666C89.8439 39.5846 90.6126 40.9226 90.8123 42.396C91.0121 43.8694 90.627 45.3624 89.739 46.5579L89.7324 46.5514Z" fill="white"/>
</svg>
