<svg width="28" height="28" viewBox="0 0 28 28" fill="none" xmlns="http://www.w3.org/2000/svg">
<path d="M14.0001 9.33333C15.6113 9.33333 16.9168 8.02783 16.9168 6.41667C16.9168 4.8055 15.6113 3.5 14.0001 3.5C12.3889 3.5 11.0834 4.8055 11.0834 6.41667C11.0834 8.02783 12.3889 9.33333 14.0001 9.33333ZM8.75011 12.25C8.75011 10.8016 12.2478 9.91667 14.0001 9.91667C15.7524 9.91667 19.2501 10.8016 19.2501 12.25V14H8.75011V12.25ZM11.6668 22.1667C11.6666 21.6493 11.8385 21.1465 12.1553 20.7374C12.4721 20.3284 12.9158 20.0362 13.4168 19.9068V18.5296H6.41678V19.9068C6.9654 20.0502 7.44309 20.3883 7.76066 20.8581C8.07824 21.3278 8.21397 21.8971 8.14253 22.4596C8.07109 23.0221 7.79736 23.5394 7.37244 23.9149C6.94753 24.2904 6.40048 24.4983 5.83345 24.5C5.26513 24.5006 4.71614 24.2937 4.28952 23.9182C3.86291 23.5427 3.588 23.0244 3.5164 22.4606C3.4448 21.8968 3.58143 21.3263 3.90064 20.8561C4.21985 20.3859 4.69969 20.0484 5.25011 19.9068V18.5296C5.25011 18.2202 5.37303 17.9234 5.59182 17.7046C5.81062 17.4858 6.10736 17.3629 6.41678 17.3629H13.4168V15.1667H14.5834V17.3629H21.5834C21.8929 17.3629 22.1896 17.4858 22.4084 17.7046C22.6272 17.9234 22.7501 18.2202 22.7501 18.5296V19.9068C23.2987 20.0502 23.7764 20.3883 24.094 20.8581C24.4116 21.3278 24.5473 21.8971 24.4759 22.4596C24.4044 23.0221 24.1307 23.5394 23.7058 23.9149C23.2809 24.2904 22.7338 24.4983 22.1668 24.5C21.5985 24.5006 21.0495 24.2937 20.6229 23.9182C20.1962 23.5427 19.9213 23.0244 19.8497 22.4606C19.7781 21.8968 19.9148 21.3263 20.234 20.8561C20.5532 20.3859 21.033 20.0484 21.5834 19.9068V18.5296H14.5834V19.9068C15.1321 20.0502 15.6098 20.3883 15.9273 20.8581C16.2449 21.3278 16.3806 21.8971 16.3092 22.4596C16.2378 23.0221 15.964 23.5394 15.5391 23.9149C15.1142 24.2904 14.5671 24.4983 14.0001 24.5C13.3813 24.5 12.7878 24.2542 12.3502 23.8166C11.9126 23.379 11.6668 22.7855 11.6668 22.1667Z" fill="white"/>
</svg>
