<svg width="129" height="129" viewBox="0 0 129 129" fill="none" xmlns="http://www.w3.org/2000/svg">
<g filter="url(#filter0_d_41_24)">
<path d="M76.325 72.5625V79.2275C72.5625 82.4525 69.875 87.29 69.875 92.45V111.263C69.875 113.735 70.4125 116.1 71.3263 118.25H32.25C26.2838 118.25 21.5 113.466 21.5 107.5V21.5C21.5 18.6489 22.6326 15.9146 24.6486 13.8986C26.6646 11.8826 29.3989 10.75 32.25 10.75H37.625V48.375L51.0625 40.3125L64.5 48.375V10.75H96.75C99.6011 10.75 102.335 11.8826 104.351 13.8986C106.367 15.9146 107.5 18.6489 107.5 21.5V48.9662C105.78 48.59 103.952 48.375 102.125 48.375C88.15 48.375 76.325 59.4475 76.325 72.5625ZM117.175 86H94.0625V72.5625C94.0625 68.2625 97.825 65.575 102.125 65.575C106.425 65.575 110.188 68.2625 110.188 72.5625V75.25H117.175V72.5625C117.175 65.0375 109.65 59.125 102.125 59.125C94.6 59.125 87.075 65.0375 87.075 72.5625V86C83.85 86 80.625 89.225 80.625 92.45V111.263C80.625 115.025 83.85 118.25 87.075 118.25H116.638C120.4 118.25 123.625 115.025 123.625 111.8V92.9875C123.625 89.225 120.4 86 117.175 86Z" fill="white"/>
</g>
<defs>
<filter id="filter0_d_41_24" x="-4" y="0" width="137" height="137" filterUnits="userSpaceOnUse" color-interpolation-filters="sRGB">
<feFlood flood-opacity="0" result="BackgroundImageFix"/>
<feColorMatrix in="SourceAlpha" type="matrix" values="0 0 0 0 0 0 0 0 0 0 0 0 0 0 0 0 0 0 127 0" result="hardAlpha"/>
<feOffset dy="4"/>
<feGaussianBlur stdDeviation="2"/>
<feComposite in2="hardAlpha" operator="out"/>
<feColorMatrix type="matrix" values="0 0 0 0 0.745098 0 0 0 0 0 0 0 0 0 0.870588 0 0 0 1 0"/>
<feBlend mode="normal" in2="BackgroundImageFix" result="effect1_dropShadow_41_24"/>
<feBlend mode="normal" in="SourceGraphic" in2="effect1_dropShadow_41_24" result="shape"/>
</filter>
</defs>
</svg>
