<svg xmlns="http://www.w3.org/2000/svg" xmlns:xlink="http://www.w3.org/1999/xlink" width="100" zoomAndPan="magnify" viewBox="0 0 75 74.999997" height="100" preserveAspectRatio="xMidYMid meet" version="1.2"><defs><clipPath id="71b4bb4c6a"><path d="M 16.617188 16.855469 L 58 16.855469 L 58 61.699219 L 16.617188 61.699219 Z M 16.617188 16.855469 "/></clipPath><clipPath id="af5128865b"><path d="M 29.257812 20.523438 L 46.632812 20.523438 L 46.632812 39.320312 L 29.257812 39.320312 Z M 29.257812 20.523438 "/></clipPath><clipPath id="467f827e30"><path d="M 37.945312 20.523438 C 33.148438 20.523438 29.257812 24.722656 29.257812 29.898438 C 29.257812 35.078125 33.148438 39.277344 37.945312 39.277344 C 42.742188 39.277344 46.632812 35.078125 46.632812 29.898438 C 46.632812 24.722656 42.742188 20.523438 37.945312 20.523438 Z M 37.945312 20.523438 "/></clipPath><clipPath id="ccbc135f37"><path d="M 28 23 L 36 23 L 36 33 L 28 33 Z M 28 23 "/></clipPath><clipPath id="3c47c150ee"><path d="M 29.820312 23.519531 L 35.378906 24.25 L 34.300781 32.464844 L 28.742188 31.734375 Z M 29.820312 23.519531 "/></clipPath><clipPath id="9d77333d6e"><path d="M 29.640625 20.523438 L 45.335938 20.523438 L 45.335938 36.21875 L 29.640625 36.21875 Z M 29.640625 20.523438 "/></clipPath></defs><g id="0d29440aed"><rect x="0" width="75" y="0" height="74.999997" style="fill:#ffffff;fill-opacity:1;stroke:none;"/><rect x="0" width="75" y="0" height="74.999997" style="fill:#ffffff;fill-opacity:1;stroke:none;"/><g clip-rule="nonzero" clip-path="url(#71b4bb4c6a)"><path style=" stroke:none;fill-rule:nonzero;fill:#bb03da;fill-opacity:1;" d="M 37.574219 16.859375 C 35.34375 16.808594 33.089844 17.363281 31.070312 18.550781 C 25.644531 21.734375 23.566406 28.433594 26.015625 34.0625 L 24.695312 34.433594 C 24.441406 34.507812 24.214844 34.808594 24.210938 35.070312 C 24.207031 35.335938 24.425781 35.640625 24.679688 35.71875 L 27.96875 36.742188 C 28.128906 36.792969 28.328125 36.773438 28.480469 36.695312 C 28.457031 36.707031 28.503906 36.683594 28.511719 36.675781 C 28.511719 36.675781 28.515625 36.671875 28.519531 36.671875 C 28.667969 36.578125 28.785156 36.410156 28.820312 36.242188 L 29.527344 32.871094 C 29.582031 32.613281 29.425781 32.269531 29.191406 32.144531 C 28.960938 32.019531 28.585938 32.074219 28.398438 32.257812 L 27.488281 33.171875 C 25.519531 28.363281 27.320312 22.722656 31.929688 20.015625 C 35.902344 17.683594 40.925781 18.179688 44.363281 21.242188 C 44.636719 21.515625 45.0625 21.570312 45.394531 21.371094 C 45.796875 21.136719 45.933594 20.617188 45.699219 20.214844 C 45.648438 20.128906 45.589844 20.054688 45.515625 19.992188 C 43.269531 17.984375 40.441406 16.921875 37.574219 16.859375 Z M 37.109375 20.703125 C 37.011719 20.703125 36.925781 20.707031 36.832031 20.714844 C 36.824219 20.714844 36.816406 20.714844 36.808594 20.71875 C 36.425781 20.726562 36.085938 20.957031 35.933594 21.300781 C 35.929688 21.304688 35.929688 21.308594 35.929688 21.3125 C 35.929688 21.3125 35.929688 21.308594 35.925781 21.316406 C 35.925781 21.316406 35.921875 21.320312 35.921875 21.320312 C 35.921875 21.324219 35.917969 21.328125 35.914062 21.34375 C 35.910156 21.347656 35.910156 21.351562 35.90625 21.355469 C 35.699219 21.816406 35.570312 22.347656 35.453125 22.933594 C 35.402344 23.179688 35.230469 23.382812 35 23.476562 C 34.988281 23.480469 34.964844 23.492188 34.925781 23.507812 C 34.695312 23.605469 34.429688 23.582031 34.222656 23.445312 C 33.722656 23.113281 33.253906 22.824219 32.777344 22.644531 C 32.757812 22.640625 32.742188 22.636719 32.726562 22.628906 C 32.375 22.492188 31.972656 22.570312 31.699219 22.832031 C 31.695312 22.835938 31.6875 22.84375 31.683594 22.851562 C 31.601562 22.917969 31.542969 22.972656 31.476562 23.035156 C 31.476562 23.035156 31.472656 23.039062 31.46875 23.039062 L 31.46875 23.042969 C 31.464844 23.042969 31.460938 23.046875 31.460938 23.046875 C 31.417969 23.089844 31.378906 23.128906 31.335938 23.171875 C 31.335938 23.171875 31.332031 23.175781 31.332031 23.175781 L 31.324219 23.183594 C 31.320312 23.183594 31.320312 23.183594 31.316406 23.1875 C 31.277344 23.226562 31.238281 23.269531 31.195312 23.3125 C 31.195312 23.3125 31.195312 23.3125 31.191406 23.316406 L 31.1875 23.316406 L 31.183594 23.320312 L 31.183594 23.324219 C 31.117188 23.394531 31.058594 23.460938 30.992188 23.53125 C 30.988281 23.535156 30.984375 23.542969 30.980469 23.550781 C 30.71875 23.824219 30.640625 24.222656 30.773438 24.578125 C 30.78125 24.597656 30.785156 24.617188 30.792969 24.636719 C 30.96875 25.109375 31.257812 25.574219 31.589844 26.074219 C 31.726562 26.28125 31.753906 26.550781 31.65625 26.78125 C 31.636719 26.824219 31.621094 26.851562 31.621094 26.859375 C 31.523438 27.089844 31.320312 27.257812 31.074219 27.304688 C 30.492188 27.425781 29.957031 27.554688 29.496094 27.765625 C 29.496094 27.765625 29.492188 27.765625 29.488281 27.765625 L 29.488281 27.761719 L 29.46875 27.777344 C 29.46875 27.777344 29.464844 27.777344 29.464844 27.777344 L 29.441406 27.789062 C 29.097656 27.941406 28.867188 28.285156 28.859375 28.664062 C 28.859375 28.671875 28.859375 28.679688 28.855469 28.6875 C 28.851562 28.78125 28.847656 28.871094 28.84375 28.964844 C 28.84375 28.964844 28.84375 28.96875 28.84375 28.972656 C 28.84375 28.976562 28.84375 28.980469 28.84375 28.984375 C 28.84375 29.042969 28.84375 29.097656 28.84375 29.15625 C 28.84375 29.15625 28.84375 29.160156 28.84375 29.164062 L 28.84375 29.171875 C 28.84375 29.175781 28.84375 29.179688 28.84375 29.179688 C 28.84375 29.238281 28.84375 29.292969 28.84375 29.351562 C 28.84375 29.355469 28.84375 29.359375 28.84375 29.359375 L 28.84375 29.363281 C 28.84375 29.367188 28.84375 29.367188 28.84375 29.371094 C 28.84375 29.464844 28.851562 29.554688 28.855469 29.648438 C 28.859375 29.65625 28.859375 29.664062 28.859375 29.671875 C 28.867188 30.050781 29.097656 30.394531 29.441406 30.546875 L 29.464844 30.558594 C 29.46875 30.558594 29.46875 30.558594 29.484375 30.566406 L 29.488281 30.570312 C 29.488281 30.570312 29.492188 30.570312 29.496094 30.570312 C 29.957031 30.78125 30.488281 30.910156 31.074219 31.03125 C 31.320312 31.078125 31.523438 31.246094 31.617188 31.476562 C 31.621094 31.484375 31.636719 31.511719 31.652344 31.554688 C 31.753906 31.785156 31.726562 32.054688 31.585938 32.261719 C 31.257812 32.761719 30.964844 33.226562 30.789062 33.699219 C 30.785156 33.71875 30.78125 33.738281 30.773438 33.757812 C 30.640625 34.109375 30.71875 34.511719 30.976562 34.785156 C 30.984375 34.792969 30.988281 34.796875 30.992188 34.804688 C 31.054688 34.875 31.117188 34.941406 31.183594 35.011719 L 31.183594 35.015625 L 31.1875 35.019531 L 31.191406 35.019531 C 31.191406 35.019531 31.191406 35.023438 31.195312 35.023438 C 31.234375 35.066406 31.273438 35.105469 31.316406 35.148438 C 31.320312 35.148438 31.320312 35.152344 31.324219 35.152344 L 31.328125 35.15625 L 31.328125 35.160156 C 31.332031 35.160156 31.332031 35.160156 31.335938 35.164062 C 31.378906 35.207031 31.417969 35.246094 31.460938 35.289062 C 31.460938 35.289062 31.464844 35.292969 31.464844 35.292969 L 31.46875 35.296875 C 31.46875 35.296875 31.472656 35.296875 31.476562 35.300781 C 31.539062 35.363281 31.601562 35.417969 31.679688 35.484375 C 31.6875 35.492188 31.691406 35.5 31.699219 35.503906 C 31.972656 35.765625 32.375 35.84375 32.726562 35.707031 C 32.742188 35.703125 32.757812 35.695312 32.777344 35.691406 C 33.25 35.511719 33.722656 35.222656 34.222656 34.890625 C 34.429688 34.75 34.695312 34.726562 34.925781 34.824219 C 34.964844 34.839844 34.988281 34.851562 35 34.855469 C 35.230469 34.953125 35.402344 35.15625 35.449219 35.402344 C 35.570312 35.988281 35.695312 36.519531 35.90625 36.980469 C 35.910156 36.984375 35.910156 36.988281 35.914062 36.992188 C 35.921875 37.007812 35.917969 37.011719 35.921875 37.015625 C 35.921875 37.015625 35.925781 37.015625 35.925781 37.015625 C 35.929688 37.023438 35.925781 37.023438 35.925781 37.023438 C 35.929688 37.027344 35.929688 37.027344 35.933594 37.03125 C 36.085938 37.378906 36.425781 37.609375 36.808594 37.617188 C 36.816406 37.617188 36.824219 37.617188 36.832031 37.621094 C 36.925781 37.625 37.015625 37.628906 37.109375 37.632812 C 37.109375 37.632812 37.113281 37.632812 37.113281 37.632812 L 37.117188 37.632812 C 37.121094 37.632812 37.121094 37.632812 37.125 37.632812 C 37.1875 37.632812 37.246094 37.632812 37.308594 37.632812 C 37.3125 37.632812 37.316406 37.632812 37.324219 37.632812 C 37.386719 37.632812 37.441406 37.632812 37.503906 37.632812 C 37.507812 37.632812 37.511719 37.632812 37.515625 37.632812 L 37.519531 37.632812 C 37.613281 37.628906 37.695312 37.625 37.792969 37.621094 C 37.800781 37.617188 37.808594 37.617188 37.8125 37.617188 C 38.195312 37.609375 38.535156 37.378906 38.691406 37.03125 C 38.695312 37.019531 38.703125 37.007812 38.710938 36.996094 L 38.710938 36.992188 C 38.710938 36.992188 38.714844 36.992188 38.714844 36.992188 C 38.714844 36.988281 38.714844 36.988281 38.71875 36.988281 C 38.929688 36.523438 39.050781 35.988281 39.171875 35.402344 C 39.222656 35.15625 39.390625 34.953125 39.621094 34.859375 C 39.644531 34.851562 39.671875 34.839844 39.703125 34.824219 C 39.933594 34.726562 40.199219 34.75 40.40625 34.890625 C 40.90625 35.21875 41.371094 35.507812 41.847656 35.683594 C 41.863281 35.691406 41.882812 35.695312 41.898438 35.703125 C 42.257812 35.839844 42.65625 35.761719 42.933594 35.5 C 42.9375 35.492188 42.941406 35.488281 42.949219 35.484375 C 43.019531 35.417969 43.09375 35.351562 43.160156 35.289062 L 43.292969 35.15625 L 43.4375 35.007812 C 43.503906 34.945312 43.554688 34.878906 43.628906 34.796875 C 43.632812 34.792969 43.640625 34.785156 43.644531 34.78125 C 43.90625 34.507812 43.984375 34.101562 43.847656 33.75 C 43.84375 33.738281 43.839844 33.722656 43.835938 33.707031 C 43.835938 33.707031 43.832031 33.707031 43.832031 33.703125 C 43.65625 33.222656 43.363281 32.753906 43.035156 32.253906 C 42.898438 32.046875 42.871094 31.78125 42.96875 31.550781 C 42.980469 31.53125 42.988281 31.503906 42.996094 31.480469 C 43.09375 31.246094 43.296875 31.078125 43.542969 31.027344 C 44.128906 30.910156 44.660156 30.78125 45.121094 30.570312 C 45.125 30.570312 45.128906 30.566406 45.132812 30.566406 C 45.148438 30.558594 45.152344 30.558594 45.15625 30.554688 C 45.164062 30.550781 45.164062 30.550781 45.167969 30.550781 C 45.167969 30.546875 45.171875 30.546875 45.175781 30.546875 C 45.519531 30.390625 45.75 30.050781 45.757812 29.671875 C 45.757812 29.660156 45.761719 29.652344 45.761719 29.648438 C 45.769531 29.550781 45.769531 29.457031 45.773438 29.363281 C 45.773438 29.363281 45.773438 29.359375 45.773438 29.359375 C 45.773438 29.296875 45.773438 29.238281 45.773438 29.175781 C 45.773438 29.171875 45.773438 29.171875 45.773438 29.167969 C 45.773438 29.167969 45.773438 29.167969 45.773438 29.164062 C 45.773438 29.101562 45.773438 29.039062 45.773438 28.976562 C 45.773438 28.976562 45.773438 28.976562 45.773438 28.972656 C 45.773438 28.878906 45.769531 28.789062 45.761719 28.691406 C 45.761719 28.683594 45.757812 28.671875 45.757812 28.667969 C 45.75 28.285156 45.519531 27.945312 45.175781 27.792969 C 45.171875 27.789062 45.167969 27.789062 45.167969 27.785156 C 45.167969 27.785156 45.167969 27.789062 45.15625 27.785156 L 45.15625 27.78125 C 45.152344 27.777344 45.148438 27.78125 45.132812 27.773438 C 45.128906 27.769531 45.125 27.769531 45.121094 27.765625 C 44.664062 27.558594 44.128906 27.429688 43.542969 27.3125 C 43.296875 27.261719 43.09375 27.09375 42.996094 26.863281 C 42.988281 26.835938 42.980469 26.8125 42.96875 26.789062 C 42.871094 26.558594 42.898438 26.292969 43.035156 26.085938 C 43.363281 25.585938 43.65625 25.117188 43.832031 24.636719 C 43.832031 24.636719 43.835938 24.636719 43.835938 24.632812 C 43.839844 24.617188 43.84375 24.605469 43.847656 24.589844 C 43.984375 24.238281 43.90625 23.835938 43.644531 23.558594 C 43.640625 23.554688 43.632812 23.550781 43.628906 23.542969 C 43.554688 23.460938 43.5 23.398438 43.4375 23.332031 L 43.445312 23.335938 L 43.292969 23.1875 L 43.160156 23.054688 C 43.09375 22.988281 43.019531 22.921875 42.949219 22.859375 C 42.941406 22.855469 42.9375 22.847656 42.933594 22.84375 C 42.65625 22.582031 42.257812 22.503906 41.898438 22.640625 C 41.882812 22.644531 41.863281 22.652344 41.84375 22.65625 C 41.371094 22.832031 40.90625 23.121094 40.40625 23.453125 C 40.199219 23.589844 39.933594 23.617188 39.703125 23.519531 C 39.671875 23.503906 39.644531 23.492188 39.621094 23.484375 C 39.390625 23.390625 39.222656 23.183594 39.171875 22.9375 C 39.050781 22.351562 38.925781 21.816406 38.714844 21.351562 C 38.714844 21.351562 38.714844 21.351562 38.714844 21.347656 C 38.714844 21.347656 38.710938 21.347656 38.710938 21.347656 L 38.710938 21.339844 C 38.703125 21.328125 38.695312 21.316406 38.691406 21.300781 C 38.535156 20.957031 38.195312 20.726562 37.8125 20.71875 C 37.804688 20.71875 37.796875 20.714844 37.792969 20.714844 C 37.699219 20.710938 37.609375 20.707031 37.519531 20.703125 L 37.515625 20.703125 C 37.511719 20.703125 37.507812 20.703125 37.503906 20.703125 C 37.441406 20.703125 37.386719 20.703125 37.324219 20.703125 C 37.316406 20.703125 37.3125 20.703125 37.308594 20.703125 C 37.246094 20.703125 37.1875 20.703125 37.125 20.703125 C 37.121094 20.703125 37.121094 20.703125 37.117188 20.703125 L 37.113281 20.703125 C 37.113281 20.703125 37.109375 20.703125 37.109375 20.703125 Z M 46.390625 21.558594 C 46.300781 21.566406 46.214844 21.589844 46.140625 21.628906 C 46.160156 21.617188 46.117188 21.644531 46.109375 21.648438 C 46.105469 21.648438 46.101562 21.652344 46.101562 21.652344 C 45.953125 21.746094 45.832031 21.914062 45.796875 22.085938 L 45.089844 25.453125 C 45.035156 25.710938 45.195312 26.054688 45.425781 26.179688 C 45.660156 26.304688 46.035156 26.25 46.21875 26.066406 L 47.132812 25.152344 C 49.097656 29.960938 47.300781 35.605469 42.6875 38.3125 C 38.714844 40.644531 33.695312 40.148438 30.257812 37.082031 C 29.984375 36.808594 29.558594 36.757812 29.222656 36.953125 C 28.820312 37.191406 28.683594 37.707031 28.921875 38.109375 C 28.96875 38.191406 29.03125 38.273438 29.105469 38.332031 C 33.09375 41.902344 38.933594 42.488281 43.550781 39.777344 C 48.976562 36.589844 51.050781 29.894531 48.601562 24.265625 L 49.921875 23.890625 C 50.175781 23.820312 50.40625 23.519531 50.410156 23.257812 C 50.414062 22.992188 50.191406 22.6875 49.941406 22.609375 L 46.652344 21.585938 C 46.570312 21.558594 46.480469 21.550781 46.390625 21.558594 Z M 37.308594 26.109375 C 38.996094 26.109375 40.363281 27.476562 40.363281 29.160156 C 40.363281 29.164062 40.363281 29.164062 40.363281 29.164062 C 40.363281 30.851562 38.996094 32.21875 37.308594 32.21875 C 35.625 32.21875 34.257812 30.851562 34.257812 29.164062 C 34.257812 27.476562 35.621094 26.109375 37.308594 26.109375 Z M 18.390625 28.183594 C 17.46875 28.183594 16.722656 28.929688 16.722656 29.851562 L 16.722656 53.75 C 16.722656 54.671875 17.46875 55.421875 18.390625 55.421875 L 33.136719 55.421875 C 33.09375 55.78125 33.050781 56.140625 33.007812 56.5 C 32.917969 57.277344 32.832031 58.027344 32.546875 58.664062 C 32.40625 58.96875 32.21875 59.234375 31.988281 59.398438 C 31.914062 59.453125 31.835938 59.492188 31.75 59.523438 L 29.890625 59.523438 C 29.59375 59.523438 29.351562 59.765625 29.351562 60.058594 C 29.351562 60.121094 29.363281 60.183594 29.382812 60.242188 L 29.664062 61.039062 C 29.738281 61.253906 29.941406 61.398438 30.171875 61.398438 L 44.445312 61.398438 C 44.675781 61.398438 44.878906 61.253906 44.953125 61.039062 L 45.234375 60.242188 C 45.332031 59.960938 45.183594 59.65625 44.90625 59.554688 C 44.847656 59.535156 44.789062 59.523438 44.726562 59.523438 L 42.867188 59.523438 C 42.78125 59.492188 42.703125 59.453125 42.628906 59.398438 C 42.402344 59.238281 42.214844 58.96875 42.074219 58.664062 C 41.785156 58.027344 41.699219 57.277344 41.609375 56.5 C 41.566406 56.140625 41.523438 55.78125 41.480469 55.421875 L 56.226562 55.421875 C 57.148438 55.421875 57.894531 54.671875 57.894531 53.75 L 57.894531 29.847656 C 57.894531 28.925781 57.148438 28.179688 56.226562 28.179688 L 50.296875 28.179688 C 50.339844 28.769531 50.355469 29.359375 50.320312 29.941406 L 56.132812 29.941406 L 56.132812 51.542969 L 18.484375 51.542969 L 18.484375 29.941406 L 24.304688 29.941406 C 24.269531 29.351562 24.273438 28.765625 24.320312 28.179688 L 18.390625 28.179688 Z M 24.273438 43.507812 C 22.945312 43.507812 21.867188 44.585938 21.867188 45.914062 C 21.867188 47.242188 22.945312 48.316406 24.273438 48.316406 L 50.34375 48.316406 C 51.671875 48.316406 52.75 47.242188 52.75 45.914062 C 52.75 44.585938 51.671875 43.507812 50.34375 43.507812 Z M 24.273438 44.378906 L 50.34375 44.378906 C 51.207031 44.378906 51.878906 45.054688 51.878906 45.914062 C 51.878906 46.777344 51.207031 47.453125 50.34375 47.453125 L 24.273438 47.453125 C 23.414062 47.453125 22.738281 46.777344 22.738281 45.914062 C 22.738281 45.054688 23.414062 44.378906 24.273438 44.378906 Z M 24.273438 44.773438 C 23.621094 44.773438 23.136719 45.253906 23.136719 45.910156 C 23.136719 46.5625 23.621094 47.050781 24.273438 47.050781 L 26.183594 47.050781 L 26.183594 44.773438 Z M 26.578125 44.773438 L 26.578125 47.050781 L 29.089844 47.050781 L 29.089844 44.773438 Z M 29.484375 44.773438 L 29.484375 47.050781 L 31.996094 47.050781 L 31.996094 44.773438 Z M 32.394531 44.773438 L 32.394531 47.050781 L 34.90625 47.050781 L 34.90625 44.773438 Z M 35.300781 44.773438 L 35.300781 47.050781 L 38.234375 47.050781 C 38.449219 47.050781 38.621094 46.882812 38.621094 46.667969 L 38.621094 45.160156 C 38.621094 44.945312 38.449219 44.773438 38.234375 44.773438 Z M 35.300781 44.773438 "/></g><g clip-rule="nonzero" clip-path="url(#af5128865b)"><g clip-rule="nonzero" clip-path="url(#467f827e30)"><path style=" stroke:none;fill-rule:nonzero;fill:#ffffff;fill-opacity:1;" d="M 29.257812 20.523438 L 46.632812 20.523438 L 46.632812 39.25 L 29.257812 39.25 Z M 29.257812 20.523438 "/></g></g><g clip-rule="nonzero" clip-path="url(#ccbc135f37)"><g clip-rule="nonzero" clip-path="url(#3c47c150ee)"><path style=" stroke:none;fill-rule:nonzero;fill:#ffffff;fill-opacity:1;" d="M 29.820312 23.519531 L 35.378906 24.25 L 34.300781 32.457031 L 28.746094 31.726562 Z M 29.820312 23.519531 "/></g></g><g clip-rule="nonzero" clip-path="url(#9d77333d6e)"><path style=" stroke:none;fill-rule:nonzero;fill:#21f07e;fill-opacity:1;" d="M 44.765625 29.597656 C 45.070312 29.597656 45.324219 29.347656 45.324219 29.039062 L 45.324219 27.683594 C 45.324219 27.375 45.070312 27.125 44.765625 27.125 L 44.183594 27.125 C 43.875 27.125 43.550781 26.882812 43.457031 26.589844 L 42.960938 25.382812 C 42.816406 25.113281 42.875 24.714844 43.09375 24.496094 L 43.503906 24.082031 C 43.722656 23.867188 43.722656 23.507812 43.503906 23.292969 L 42.546875 22.335938 C 42.328125 22.117188 41.972656 22.117188 41.753906 22.335938 L 41.34375 22.746094 C 41.125 22.964844 40.726562 23.023438 40.453125 22.878906 L 39.25 22.382812 C 38.957031 22.289062 38.714844 21.964844 38.714844 21.65625 L 38.714844 21.074219 C 38.714844 20.765625 38.464844 20.515625 38.15625 20.515625 L 36.800781 20.515625 C 36.492188 20.515625 36.242188 20.765625 36.242188 21.074219 L 36.242188 21.65625 C 36.242188 21.964844 36 22.289062 35.707031 22.382812 L 34.503906 22.878906 C 34.230469 23.023438 33.832031 22.964844 33.613281 22.746094 L 33.203125 22.335938 C 32.984375 22.117188 32.628906 22.117188 32.410156 22.335938 L 31.453125 23.292969 C 31.234375 23.507812 31.234375 23.867188 31.453125 24.082031 L 31.863281 24.496094 C 32.082031 24.714844 32.140625 25.113281 31.996094 25.382812 L 31.5 26.589844 C 31.410156 26.882812 31.082031 27.125 30.773438 27.125 L 30.195312 27.125 C 29.886719 27.125 29.632812 27.375 29.632812 27.683594 L 29.632812 29.039062 C 29.632812 29.347656 29.886719 29.597656 30.195312 29.597656 L 30.773438 29.597656 C 31.082031 29.597656 31.410156 29.839844 31.5 30.132812 L 31.996094 31.335938 C 32.140625 31.609375 32.082031 32.007812 31.863281 32.226562 L 31.453125 32.636719 C 31.234375 32.855469 31.234375 33.210938 31.453125 33.429688 L 32.410156 34.386719 C 32.628906 34.605469 32.984375 34.605469 33.203125 34.386719 L 33.613281 33.976562 C 33.832031 33.757812 34.230469 33.699219 34.503906 33.84375 L 35.707031 34.339844 C 36 34.429688 36.242188 34.757812 36.242188 35.066406 L 36.242188 35.648438 C 36.242188 35.953125 36.492188 36.207031 36.800781 36.207031 L 38.15625 36.207031 C 38.464844 36.207031 38.714844 35.953125 38.714844 35.648438 L 38.714844 35.066406 C 38.714844 34.757812 38.957031 34.429688 39.25 34.339844 L 40.453125 33.84375 C 40.726562 33.699219 41.125 33.757812 41.34375 33.976562 L 41.757812 34.386719 C 41.972656 34.605469 42.332031 34.605469 42.546875 34.386719 L 43.503906 33.429688 C 43.722656 33.210938 43.722656 32.855469 43.503906 32.636719 L 43.09375 32.226562 C 42.875 32.007812 42.816406 31.609375 42.960938 31.335938 L 43.457031 30.132812 C 43.550781 29.839844 43.875 29.597656 44.183594 29.597656 Z M 37.480469 31.589844 C 35.695312 31.589844 34.25 30.144531 34.25 28.359375 C 34.25 26.578125 35.695312 25.132812 37.480469 25.132812 C 39.261719 25.132812 40.707031 26.578125 40.707031 28.359375 C 40.707031 30.144531 39.261719 31.589844 37.480469 31.589844 Z M 37.480469 31.589844 "/></g></g></svg>