<svg width="65" height="65" viewBox="0 0 65 65" fill="none" xmlns="http://www.w3.org/2000/svg">
<g clip-path="url(#clip0_390_30)">
<path fill-rule="evenodd" clip-rule="evenodd" d="M60.8589 30.0571C60.2089 29.0279 58.9089 29.0008 57.6902 29.1633C52.6474 29.9719 47.9427 32.2109 44.135 35.6146C41.5862 37.3684 39.525 39.7412 38.1449 42.5103C36.7649 45.2794 36.1113 48.3538 36.2456 51.4448C36.204 53.4739 36.5629 55.4912 37.3018 57.3814C35.539 59.529 33.9359 61.8029 32.5054 64.1848C32.5054 64.8077 33.2908 65.3223 34.1845 64.7535C37.3595 61.4549 40.3462 57.98 43.1302 54.3454C45.5271 50.7915 47.726 47.108 49.7168 43.3116C49.7765 43.179 49.7994 43.0328 49.7832 42.8883C49.7671 42.7438 49.7125 42.6062 49.625 42.49C49.5376 42.3738 49.4206 42.2832 49.2862 42.2276C49.1518 42.1721 49.005 42.1536 48.861 42.1741C48.6677 42.2016 48.4908 42.2978 48.3627 42.445C37.8706 56.2954 39.3629 54.3725 38.1983 55.9975C38.17 55.5465 38.17 55.0943 38.1983 54.6433C37.7209 52.0783 37.8681 49.436 38.6275 46.9399C39.387 44.4437 40.7363 42.1672 42.5614 40.3027C47.9835 34.8806 55.8702 31.9258 58.0937 32.1696C58.0937 40.7089 58.0937 39.8964 57.9041 41.2506L53.7306 43.9616C53.2431 44.2325 52.0243 44.5575 51.6722 45.5866C51.0737 47.3769 53.2702 47.5421 54.7056 48.9775C51.2633 50.9816 50.83 50.3316 49.771 51.09C49.5888 51.1891 49.428 51.3233 49.2979 51.4849C49.1679 51.6464 49.0711 51.8322 49.0132 52.0313C48.9552 52.2305 48.9373 52.4392 48.9605 52.6453C48.9837 52.8514 49.0474 53.0509 49.1481 53.2323C50.0075 54.061 50.9112 54.8383 51.8591 55.5641C44.5954 61.6633 42.5614 59.5508 41.3427 60.3633C41.18 60.4741 41.0557 60.6327 40.987 60.8171C40.9183 61.0016 40.9086 61.2028 40.9591 61.393C41.0096 61.5832 41.1179 61.7531 41.2691 61.8791C41.4203 62.0052 41.6069 62.0812 41.8031 62.0966C47.2252 62.9633 54.2722 56.6773 54.516 56.0516C54.9493 54.9141 53.6222 54.0204 52.3764 52.8829C54.175 52.1824 55.9304 51.3757 57.6333 50.4671C57.8538 50.3584 58.0441 50.197 58.1873 49.9972C58.3305 49.7974 58.4222 49.5653 58.4544 49.3216C58.4865 49.0779 58.4581 48.83 58.3715 48.5999C58.285 48.3698 58.1431 48.1646 57.9583 48.0025L55.7375 46.0227C58.7979 44.3435 60.3443 43.531 60.886 42.0387C61.211 41.2262 61.7256 31.3841 60.8589 30.0571Z" fill="white"/>
<path fill-rule="evenodd" clip-rule="evenodd" d="M29.9571 51.4448C9.73393 51.7427 18.3275 51.7698 9.49018 50.7135C8.16309 50.5781 7.56726 49.576 7.18809 48.4087C6.48393 46.104 6.67351 45.6977 6.99851 23.1156C6.61073 18.5923 6.80186 14.038 7.56726 9.56312C8.24434 6.85208 7.56726 5.82291 11.4131 5.87708C11.4131 6.79791 11.061 10.2944 11.1423 10.8902C11.386 12.9512 13.4227 12.6506 14.2081 12.8673C18.3275 13.845 19.8739 10.7548 19.6302 6.44583C20.9193 6.83312 22.2952 6.83312 23.5843 6.44583C23.5843 6.74374 23.3135 10.186 23.3948 10.6735C23.6385 12.7319 25.6481 12.4069 26.4606 12.6235C30.5258 13.6012 32.0723 10.6194 31.8827 6.39166C33.7243 6.93333 33.8598 6.85208 36.5708 6.22916C36.5708 6.49999 36.3541 9.96937 36.4083 10.2944C36.4308 10.6917 36.5795 11.0714 36.8328 11.3783C37.0861 11.6852 37.4308 11.9032 37.8166 12.0006C42.1554 13.1679 44.7039 12.0006 44.8393 7.3152C45.7493 7.33687 46.6521 7.41812 47.5477 7.55895C48.2004 7.55895 48.742 7.77562 48.7962 8.31729L49.7983 27.1023C49.7669 27.2791 49.7948 27.4613 49.8776 27.6206C49.9604 27.7799 50.0935 27.9074 50.2562 27.9834C50.4188 28.0593 50.6021 28.0794 50.7774 28.0406C50.9526 28.0017 51.1102 27.9061 51.2256 27.7685C51.3015 27.6769 51.3564 27.5698 51.3863 27.4547C51.4163 27.3396 51.4206 27.2193 51.3989 27.1023C52.5906 20.7323 52.5906 14.1971 51.3989 7.82708C50.7489 5.11874 47.8212 5.11874 44.9477 5.36249C44.6894 3.84021 44.196 2.36735 43.4852 0.996661C43.0994 0.6483 42.6474 0.381163 42.1562 0.211169C41.665 0.041174 41.1446 -0.0281994 40.626 0.00718222C40.1074 0.0425638 39.6012 0.181976 39.1376 0.417112C38.6741 0.652249 38.2626 0.978297 37.9277 1.37583C37.4003 2.20386 37.0329 3.12343 36.8443 4.08687C35.0387 3.65589 33.1436 3.79788 31.4223 4.49312C31.3346 3.40051 31.0406 2.33445 30.5556 1.35145C30.1636 0.986204 29.7006 0.705631 29.1954 0.527232C28.6903 0.348832 28.1537 0.276434 27.6193 0.314551C27.0849 0.352668 26.5641 0.500483 26.0894 0.748778C25.6146 0.997072 25.1961 1.34052 24.86 1.7577C24.4193 2.4676 24.099 3.24544 23.9121 4.05979C22.3562 3.75241 20.7465 3.86458 19.2483 4.38479C19.1315 3.37548 18.8382 2.39457 18.3816 1.48687C17.9978 1.02733 17.4897 0.688145 16.9181 0.509941C16.3465 0.331737 15.7357 0.322063 15.1587 0.482078C12.9866 0.807078 12.1741 2.29666 11.6866 4.41187C10.2416 4.13798 8.74619 4.37747 7.45893 5.08895C6.07768 6.00979 5.99643 7.96249 5.61455 9.21104C4.56067 13.7952 4.0965 18.4951 4.2333 23.1969C3.71872 35.9125 3.85413 31.8446 3.66455 41.3319C3.66455 46.4831 3.66455 53.0698 9.24643 53.476C18.3004 54.1531 9.57143 54.4781 29.9841 53.3406C30.1086 53.3388 30.2315 53.3126 30.3459 53.2633C30.4602 53.214 30.5637 53.1427 30.6504 53.0534C30.7372 52.9641 30.8055 52.8586 30.8515 52.7429C30.8975 52.6273 30.9203 52.5036 30.9185 52.3792C30.9167 52.2547 30.8905 52.1318 30.8412 52.0174C30.7919 51.9031 30.7206 51.7996 30.6313 51.7128C30.542 51.6261 30.4365 51.5578 30.3208 51.5118C30.2051 51.4658 30.0815 51.443 29.9571 51.4448ZM39.1193 4.70979C39.336 0.671661 41.8304 1.67645 41.9929 2.46187C42.3098 4.45791 42.2637 6.49729 41.8575 8.47708C41.4241 9.96937 40.6658 9.61458 39.1491 9.58749C39.2214 7.96249 39.2123 6.33749 39.1221 4.71249M26.6502 2.78958C27.1918 1.70624 28.7627 2.43749 28.9793 2.35624C29.4034 4.50398 29.4034 6.71392 28.9793 8.86166C28.7356 9.67416 28.2481 10.2429 27.2189 9.94499H26.2439C26.2439 9.61999 26.4064 9.26791 26.4064 9.13249C26.0394 7.02466 26.1224 4.86302 26.6502 2.78958ZM14.4789 2.92499C15.0206 1.84166 16.5914 2.57291 16.8081 2.49166C17.217 4.63124 17.217 6.8277 16.8081 8.96999C16.5643 9.78249 16.0768 10.3783 15.0477 10.0533H14.0727C14.0727 9.72833 14.2352 9.37624 14.2352 9.24083C13.872 7.14179 13.955 4.98979 14.4789 2.92499Z" fill="white"/>
<path fill-rule="evenodd" clip-rule="evenodd" d="M40.9906 22.3302C41.0986 22.2458 41.1886 22.1406 41.2554 22.0209C41.3222 21.9012 41.3644 21.7694 41.3795 21.6331C41.3947 21.4969 41.3824 21.359 41.3436 21.2276C41.3047 21.0961 41.2399 20.9738 41.1531 20.8677C40.6385 20.0281 25.7806 18.915 18.571 19.2129C10.4379 19.7546 11.6052 21.1087 12.9052 21.4067C15.7246 22.276 40.9365 22.3844 40.9906 22.3302ZM32.5054 30.7342C31.6658 30.5175 25.0765 30.1654 23.8306 30.1654C22.5848 30.1654 13.4225 30.4362 12.9865 31.4654C12.9619 31.579 12.9638 31.6966 12.992 31.8093C13.0202 31.922 13.0739 32.0268 13.149 32.1154C14.7929 32.7112 16.5262 33.0227 18.2731 33.0362C23.0181 33.3694 27.7821 33.2529 32.5054 32.6842C33.6158 32.6842 33.9679 31.0862 32.5054 30.7342ZM13.7475 43.3117C17.8293 44.2164 22.0516 44.2901 26.1625 43.5283C26.3345 43.3557 26.4311 43.122 26.4311 42.8783C26.4311 42.6347 26.3345 42.4009 26.1625 42.2283C23.6262 41.4017 20.9668 41.017 18.3002 41.0908C12.0927 41.47 10.8198 42.8242 13.7475 43.3117Z" fill="#BE00DE"/>
</g>
<defs>
<clipPath id="clip0_390_30">
<rect width="65" height="65" fill="white"/>
</clipPath>
</defs>
</svg>
