<svg width="152" height="152" viewBox="0 0 152 152" fill="none" xmlns="http://www.w3.org/2000/svg">
<path fill-rule="evenodd" clip-rule="evenodd" d="M76.1235 19C61.8197 19 48.7888 23.7247 41.078 27.5848C40.3813 27.9332 39.7311 28.2731 39.1273 28.6045C37.9303 29.2568 36.9107 29.8648 36.1 30.4L44.8717 43.3137L49.001 44.9572C65.1383 53.0987 86.7793 53.0987 102.92 44.9572L107.606 42.5252L115.9 30.4C114.18 29.2825 112.394 28.2705 110.551 27.3695C102.879 23.5505 90.1582 19 76.1267 19M55.727 33.6173C52.6216 33.0329 49.5539 32.2631 46.5405 31.312C53.7637 28.1042 64.5272 24.7 76.1267 24.7C84.1605 24.7 91.7573 26.334 98.04 28.405C90.6775 29.4405 82.821 31.198 75.335 33.3608C69.445 35.0645 62.5607 34.8808 55.727 33.6173ZM106.267 49.6533L105.488 50.046C87.7357 59.0013 64.1883 59.0013 46.436 50.046L45.6982 49.6723C19.0253 78.9355 -1.33634 132.991 76.1235 132.991C153.583 132.991 132.728 77.9317 106.267 49.6533ZM72.8333 76C71.1536 76 69.5427 76.6673 68.355 77.855C67.1673 79.0427 66.5 80.6536 66.5 82.3333C66.5 84.013 67.1673 85.6239 68.355 86.8117C69.5427 87.9994 71.1536 88.6667 72.8333 88.6667V76ZM79.1667 69.6667V66.5H72.8333V69.6667C69.4739 69.6667 66.2521 71.0012 63.8767 73.3766C61.5012 75.7521 60.1667 78.9739 60.1667 82.3333C60.1667 85.6927 61.5012 88.9146 63.8767 91.29C66.2521 93.6655 69.4739 95 72.8333 95V107.667C70.0783 107.667 67.7318 105.909 66.8578 103.445C66.7282 103.042 66.519 102.669 66.2426 102.349C65.9663 102.028 65.6285 101.766 65.249 101.578C64.8696 101.39 64.4564 101.28 64.0337 101.254C63.6111 101.229 63.1876 101.288 62.7884 101.43C62.3892 101.571 62.0223 101.79 61.7094 102.076C61.3966 102.361 61.1442 102.706 60.967 103.091C60.7899 103.475 60.6917 103.891 60.6783 104.315C60.6648 104.738 60.7364 105.159 60.8887 105.554C61.7618 108.025 63.3793 110.163 65.5186 111.676C67.6578 113.188 70.2134 114 72.8333 114V117.167H79.1667V114C82.5261 114 85.7479 112.665 88.1234 110.29C90.4988 107.915 91.8333 104.693 91.8333 101.333C91.8333 97.9739 90.4988 94.7521 88.1234 92.3766C85.7479 90.0012 82.5261 88.6667 79.1667 88.6667V76C81.9217 76 84.2682 77.7575 85.1422 80.2212C85.2718 80.6242 85.481 80.9972 85.7574 81.318C86.0337 81.6388 86.3716 81.901 86.751 82.0889C87.1304 82.2769 87.5436 82.3868 87.9663 82.4123C88.3889 82.4378 88.8124 82.3782 89.2116 82.2372C89.6108 82.0961 89.9777 81.8764 90.2906 81.5911C90.6034 81.3058 90.8559 80.9606 91.033 80.576C91.2101 80.1914 91.3083 79.7752 91.3217 79.352C91.3352 78.9288 91.2637 78.5072 91.1113 78.1122C90.2382 75.642 88.6207 73.5033 86.4814 71.9908C84.3422 70.4782 81.7866 69.6662 79.1667 69.6667ZM79.1667 95V107.667C80.8464 107.667 82.4573 106.999 83.645 105.812C84.8327 104.624 85.5 103.013 85.5 101.333C85.5 99.6536 84.8327 98.0427 83.645 96.855C82.4573 95.6673 80.8464 95 79.1667 95Z" fill="white"/>
</svg>
